# xmcd
#
# Track frame offsets: 
#        150
#        13267
#        24632
#        36978
#        52083
#        62317
#        75770
#        87537
#        98417
#        109853
#        122952
#        134499
#        146403
#        161968
#        174195
#        189363
#        199192
#        209679
#
# Disc length: 2928 seconds
#
# Revision: 1
# Processed by: cddbd v1.5.2PL0 Copyright (c) Steve Scherf et al.
# Submitted via: ExactAudioCopy v0.99pb5
#
DISCID=fa0b6e12
DTITLE=Dolly Parton and Kenny Rogers - Honkytonk Angels
DYEAR=2000
DGENRE=Country
TTITLE0=Kenny Rogers - Ruby (Don't Take Your Love To Town)
TTITLE1=Dolly Parton - Makin' Believe
TTITLE2=Kenny Rogers - Ruben James
TTITLE3=Kenny Rogers - Just Dropped In (To See What Condition My Condi
TTITLE3=tion Was In)
TTITLE4=Dolly Parton - Release Me
TTITLE5=Kenny Rogers - Shine On Ruby Mountain
TTITLE6=Kenny Rogers - Elvira
TTITLE7=Dolly Parton - It Wasn't God Who Made Honkytonk Angels
TTITLE8=Kenny Rogers - Me And Bobby McGee
TTITLE9=Dolly Parton - Little Blossom
TTITLE10=Kenny Rogers - Poem For A Little Lady
TTITLE11=Dolly Parton - Letter To Heaven
TTITLE12=Kenny Rogers - Tulsa Turnaround
TTITLE13=Dolly Parton - Two Little Orphans
TTITLE14=Kenny Rogers - For The Good Times
TTITLE15=Dolly Parton - Girl Left Alone
TTITLE16=Kenny Rogers - Ticket To Nowhere
TTITLE17=Kenny Rogers - Where Does Rosie Go
EXTD=
EXTT0=
EXTT1=
EXTT2=
EXTT3=
EXTT4=
EXTT5=
EXTT6=
EXTT7=
EXTT8=
EXTT9=
EXTT10=
EXTT11=
EXTT12=
EXTT13=
EXTT14=
EXTT15=
EXTT16=
EXTT17=
PLAYORDER=
